<svg xmlns="http://www.w3.org/2000/svg" viewBox="0 0 359.99 283.21"><path d="M150,161.81c0,32.68-26.99,58.81-60.02,58.81H0V.02H30.02V73.57h59.97c33.03,0,60.02,26.47,60.02,58.84v29.4Zm-30-29.4c0-16.21-13.49-29.43-30.02-29.43H30.02v88.24h59.97c16.54,0,30.02-13.2,30.02-29.41v-29.4Zm44.97,88.21h30.04V0h-30.04V220.63ZM239.99,73.56h-30v88.24c0,32.33,26.95,58.81,59.96,58.81h90.04V73.56h-30.04v117.65h-60c-16.51,0-29.96-13.2-29.96-29.41V73.56ZM1.72,283.21v-44.59H21.24c2.53,0,4.76,.5,6.69,1.45,1.9,.95,3.37,2.32,4.39,4.09,1.03,1.75,1.53,3.82,1.53,6.14,0,2.85-.58,5.25-1.79,7.23-1.18,1.96-3,3.34-5.45,4.1v.09c2.2,.47,3.72,1.43,4.6,2.97,.86,1.55,1.4,3.6,1.63,6.2,.1,1.51,.21,3.06,.3,4.65,.09,1.59,.32,3.04,.63,4.35,.3,1.33,.83,2.43,1.54,3.32h-6.21c-.44-.48-.7-1.16-.77-1.98-.09-.83-.21-2.28-.3-4.32-.06-2.06-.22-3.63-.43-4.73-.32-2.61-.95-4.61-1.89-5.95-.88-1.37-2.58-2.06-5.02-2.06H7.23v19.04H1.72Zm5.51-24.07h11.51c2.95,0,5.31-.56,6.99-1.72,1.74-1.12,2.59-3.2,2.59-6.16,0-1.47-.28-2.81-.79-3.95-.51-1.14-1.34-2.06-2.45-2.71-1.14-.64-2.5-.96-4.16-.96H7.23v15.49Zm92.17,24.06v-4.98h-23.31v-15.41h21.55v-5.03h-21.55v-14.14h23.13v-5.03h-28.68v44.59h28.86Zm30.77,0l16.23-44.59h6.09l16.21,44.59h-6.09l-4.52-13.4h-17.58l-4.67,13.4h-5.67Zm19.12-39.17l-7.02,20.79h14.05l-6.9-20.79h-.13Zm80.03,39.17v-4.98h-21.95v-39.61h-5.56v44.59h27.51Zm48.83,0v-39.56h13.86v-5.03h-33.22v5.03h13.82v39.56h5.54Zm74.24-44.59l-12.17,21.22-12.42-21.22h-6.6l16.05,26.38v18.21h5.53v-18.21l15.86-26.38h-6.25Z"></path></svg>